<svg xmlns="http://www.w3.org/2000/svg" viewBox="0 0 389.2 75.62"><defs><style>.cls-1{fill:#333258;}.cls-2{fill:#8d8fce;}.cls-3{fill:#fd5d48;}</style></defs><g id="Layer_2" data-name="Layer 2"><g id="Layer_1-2" data-name="Layer 1"><path class="cls-1" d="M158.52,61.09a2.91,2.91,0,0,1-1.92-.64,2.17,2.17,0,0,1-.77-1.75V15.76a2.29,2.29,0,0,1,2.38-2.38h14.85a14,14,0,0,1,6.62,1.56,12.31,12.31,0,0,1,4.71,4.24,11.23,11.23,0,0,1,1.74,6.23,10.09,10.09,0,0,1-1.77,5.87,11.47,11.47,0,0,1-4.64,3.91,12.5,12.5,0,0,1,6.59,4.12A11.63,11.63,0,0,1,188.82,47a14.07,14.07,0,0,1-1.9,7.33,13.36,13.36,0,0,1-5.22,5,15.61,15.61,0,0,1-7.6,1.81Zm2.08-27.8h12.46a8.86,8.86,0,0,0,6-2.07,7.3,7.3,0,0,0,2.39-5.81,6.66,6.66,0,0,0-2.39-5.55,9.35,9.35,0,0,0-6-1.9H160.6Zm0,23.22h13.5a11.15,11.15,0,0,0,5.19-1.17,8.65,8.65,0,0,0,3.54-3.29A9.65,9.65,0,0,0,184.11,47a8.81,8.81,0,0,0-1.28-4.8A8.64,8.64,0,0,0,179.29,39a11.39,11.39,0,0,0-5.19-1.14H160.6Z"/><path class="cls-1" d="M204.88,61.09a7.44,7.44,0,0,1-4.37-1.35,8.76,8.76,0,0,1-3-3.72,13.36,13.36,0,0,1-1.07-5.5V15.7a2.31,2.31,0,0,1,.64-1.68,2.32,2.32,0,0,1,4,1.68V50.52a7.72,7.72,0,0,0,1.07,4.27,3.16,3.16,0,0,0,2.72,1.65h1.53a1.81,1.81,0,0,1,1.46.65,2.45,2.45,0,0,1,.55,1.68,2.09,2.09,0,0,1-.76,1.68,3,3,0,0,1-2,.64Z"/><path class="cls-1" d="M229.44,61.45a16.39,16.39,0,0,1-7.76-1.8,13.28,13.28,0,0,1-5.41-5.28,16.92,16.92,0,0,1-2-8.49V30a2.21,2.21,0,0,1,.67-1.65,2.25,2.25,0,0,1,1.65-.68,2.32,2.32,0,0,1,1.71.68A2.21,2.21,0,0,1,219,30V45.88a12.15,12.15,0,0,0,1.44,6.23,9.08,9.08,0,0,0,3.91,3.66,13.28,13.28,0,0,0,11,.06,9.64,9.64,0,0,0,3.82-3.17,7.87,7.87,0,0,0,1.4-4.58h3.36a13.57,13.57,0,0,1-7.27,11.63A15,15,0,0,1,229.44,61.45Zm13.43-.36a2.31,2.31,0,0,1-1.68-.64,2.4,2.4,0,0,1-.64-1.75V30a2.21,2.21,0,0,1,2.32-2.33,2.35,2.35,0,0,1,1.71.65,2.19,2.19,0,0,1,.68,1.68V58.7a2.3,2.3,0,0,1-.68,1.75A2.38,2.38,0,0,1,242.87,61.09Z"/><path class="cls-1" d="M271.4,61.39a17.42,17.42,0,0,1-8.77-2.17,15.56,15.56,0,0,1-6-6,17.58,17.58,0,0,1-2.17-8.8,18.47,18.47,0,0,1,2-8.83,15.34,15.34,0,0,1,14-8.21,15.21,15.21,0,0,1,8.1,2.11,14.2,14.2,0,0,1,5.34,5.83,18.48,18.48,0,0,1,1.89,8.49,2,2,0,0,1-.61,1.56,2.21,2.21,0,0,1-1.58.58h-26V42H284.1l-2.62,1.89a13.91,13.91,0,0,0-1.29-6.35,10.43,10.43,0,0,0-3.81-4.4,10.69,10.69,0,0,0-5.9-1.59,11.25,11.25,0,0,0-6.11,1.65,11.07,11.07,0,0,0-4.06,4.55,14.75,14.75,0,0,0-1.43,6.63A13.2,13.2,0,0,0,260.5,51a11.92,11.92,0,0,0,4.42,4.52,12.59,12.59,0,0,0,6.48,1.65,13.64,13.64,0,0,0,4.43-.77,10.73,10.73,0,0,0,3.57-1.92,2.48,2.48,0,0,1,1.53-.58,2.1,2.1,0,0,1,1.46.46,2.27,2.27,0,0,1,.83,1.59,1.76,1.76,0,0,1-.7,1.46,16.69,16.69,0,0,1-5.13,2.84A17.42,17.42,0,0,1,271.4,61.39Z"/><path class="cls-1" d="M305.42,61.39a21.71,21.71,0,0,1-7.15-1.22,13.5,13.5,0,0,1-5.74-3.66,2,2,0,0,1-.55-1.65,2.52,2.52,0,0,1,.92-1.59,2.42,2.42,0,0,1,1.77-.49,2.48,2.48,0,0,1,1.53.79,9.38,9.38,0,0,0,3.88,2.63,14.92,14.92,0,0,0,5.34.92q4.51,0,6.54-1.56A4.81,4.81,0,0,0,314,51.8,4.28,4.28,0,0,0,312,48.17a17.68,17.68,0,0,0-6.84-2.23q-6.18-1-9-3.42a7.4,7.4,0,0,1-2.88-5.81,8.16,8.16,0,0,1,1.65-5.19,10,10,0,0,1,4.4-3.11,17.08,17.08,0,0,1,6.05-1,16.39,16.39,0,0,1,7.05,1.4,12.88,12.88,0,0,1,4.8,3.79,2.14,2.14,0,0,1,.49,1.65,2,2,0,0,1-1,1.41,2.5,2.5,0,0,1-1.68.27,2.74,2.74,0,0,1-1.62-.89,9.25,9.25,0,0,0-3.54-2.59,12.16,12.16,0,0,0-4.64-.83A9.39,9.39,0,0,0,299.8,33a4.06,4.06,0,0,0-2,3.45,4,4,0,0,0,.76,2.44,6.12,6.12,0,0,0,2.63,1.84A24.24,24.24,0,0,0,306.4,42a23.17,23.17,0,0,1,7.24,2.17,9.44,9.44,0,0,1,3.79,3.36,8.14,8.14,0,0,1,1.12,4.18,7.92,7.92,0,0,1-1.68,5,10.86,10.86,0,0,1-4.64,3.39A17.61,17.61,0,0,1,305.42,61.39Z"/><path class="cls-1" d="M329,61.09a2.31,2.31,0,0,1-1.68-.64,2.27,2.27,0,0,1-.64-1.68V15.7a2.32,2.32,0,1,1,4.64,0V58.77a2.27,2.27,0,0,1-.64,1.68A2.31,2.31,0,0,1,329,61.09Zm1.53-11.18-2.87-3.12,20.89-18.87a1.95,1.95,0,0,1,3,.12,2.15,2.15,0,0,1,.64,1.56,1.89,1.89,0,0,1-.76,1.43ZM351.6,60.78a2.15,2.15,0,0,1-1.65.58,2.1,2.1,0,0,1-1.47-.88L334.86,43.74l3.3-2.93,13.75,16.92a2.17,2.17,0,0,1,.55,1.55A2.22,2.22,0,0,1,351.6,60.78Z"/><path class="cls-1" d="M374.14,60.05a2.26,2.26,0,0,1-1.71.15A2.3,2.3,0,0,1,371.15,59L357.52,30.79a2.15,2.15,0,0,1-.12-1.71,2.24,2.24,0,0,1,1.22-1.22,2.22,2.22,0,0,1,1.71-.16,2.15,2.15,0,0,1,1.23,1.2l13.37,28.22a2.42,2.42,0,0,1,.31,1.71A1.81,1.81,0,0,1,374.14,60.05Zm-6.78,15.57a3,3,0,0,1-1.1-.24,2,2,0,0,1-1.16-2.93L384.83,29a2,2,0,0,1,2.93-1.1,1.9,1.9,0,0,1,1.16,2.87L369.13,74.22A1.93,1.93,0,0,1,367.36,75.62Z"/><path class="cls-1" d="M68.58,62.67,78.73,53.5a1.54,1.54,0,0,1,2,0l10.48,9.18a1.53,1.53,0,0,1-1,2.68H69.6A1.53,1.53,0,0,1,68.58,62.67Z"/><path class="cls-2" d="M52.4,65l27.34-23.7a1.56,1.56,0,0,1,2.07,0l25.68,23.63a1.52,1.52,0,0,0,1,.41h17.64a1.53,1.53,0,0,0,1-2.65L81,19.22,32.28,65.34H51.4A1.49,1.49,0,0,0,52.4,65Z"/><polygon class="cls-3" points="81.03 19.22 69.2 8.78 12.05 64.52 32.28 65.34 81.03 19.22"/><path class="cls-1" d="M69.21,8.78,60.31.42a1.52,1.52,0,0,0-2.12,0L1.77,55.49C-1.57,59.22.37,63,3,64.07l9.05.45Z"/></g></g></svg>